<svg xmlns="http://www.w3.org/2000/svg" height="1000" width="1000" version="1.1" xmlns:xlink="http://www.w3.org/1999/xlink" xmlns:svgjs="http://svgjs.com/svgjs"><rect fill="#f3ebe9" width="1000" height="1000"></rect><g><path d="M569.28 296.27C582.07 296.27 592.42 285.91 592.42 273.14 592.42 260.36 582.07 250 569.28 250 556.51 250 546.15 260.36 546.15 273.14 546.15 285.91 556.51 296.27 569.28 296.27Z" fill="#78123c" opacity="1" stroke-width="4" stroke="none"></path><path d="M556.37 680.54C553.9 664.98 549.52 645.55 545.42 626.85 544.75 623.71 544.02 620.56 543.34 617.42 541.32 608.1 539.58 597.48 538.12 585.97L537.67 581.37H593.49L595.28 585.92C595.17 595.46 596.24 599.51 598.6 608.38 599.38 611.41 600.34 614.72 601.35 618.26 605.84 633.93 612.07 655.32 612.64 680.42V680.48L580.46 727.2 556.37 680.54Z" fill="#dab1a4" opacity="1" stroke-width="4" stroke="none"></path><path d="M538.57 589.4C538.4 588.22 538.29 587.1 538.12 585.97L537.67 581.37H593.49L595.28 585.92C595.17 595.46 596.24 599.51 598.6 608.38L598.65 608.6 538.57 589.4Z" fill="#404040" opacity="0.2" stroke-width="4" stroke="none"></path><path d="M524.81 345.86C522.79 346.25 520.82 346.42 518.97 346.42 511.84 346.42 506.05 343.5 503.98 338.78 503.92 338.67 503.86 338.56 503.81 338.44 502.8 336.31 500.78 331.82 503.64 315.42 504.48 310.76 504.82 307.05 505.1 304.08 505.89 295.77 506.22 292 514.53 284.59 519.19 280.44 526.78 281.56 535.37 281.56 545.19 281.56 549.57 283.13 553.11 287.68 559.57 295.99 562.77 297.34 562.04 313.01 561.59 322.1 563.73 342.65 563.73 342.65 563.73 342.65 563.39 349.79 563.28 351.3L562.04 354.73 524.19 355.85 524.81 345.86Z" fill="#dab1a4" opacity="1" stroke-width="4" stroke="none"></path><path d="M524.81 345.86L525.43 345.74C528.85 345.24 531.72 344.34 535.03 343.27L535.37 343.16 526.16 355.35 524.19 355.68 524.81 345.86Z" fill="#404040" opacity="0.2" stroke-width="4" stroke="none"></path><path d="M563.61 345.35C563.5 345.35 543.85 339.23 545.21 337.97L545.95 337.25 546.21 337.04C546.82 336.52 560.08 328.56 555.13 318.68 553.67 315.81 551.15 314.35 547.67 314.35 542.44 314.35 537.19 318.06 536.73 317.62L536.65 317.49 536.44 317.25C535.5 315.76 535.31 305.03 534.76 304.44 534.47 304.08 530.03 305.93 526.27 305.93 524.02 305.93 522.45 305.26 521.5 303.96 520.15 302.06 520.26 298.74 518.95 297.99 517.34 297.39 513.13 298.07 510.38 298.07 507.74 298.07 505.94 297.28 505.94 297.28 506.9 292.73 508.58 289.14 514.08 284.25 518.8 280.1 526.05 277.8 534.53 277.8 544.18 277.8 553.67 280.72 558.05 285.38 566.25 292.12 565.75 297.51 565.24 313.17 564.85 322.1 563.61 345.35 563.61 345.35Z" fill="#78123c" opacity="1" stroke-width="4" stroke="none"></path><path d="M415.7 445.75C405.59 445.75 397.79 440.03 397.28 439.58L389.03 437.95C389.08 437.72 393.35 414.7 387.91 411.95 384.2 410.1 382.74 407.06 382.96 405.04 383.13 403.58 384.14 402.57 385.66 402.18 386.22 402.07 386.95 402.01 387.96 402.01 398.46 402.01 430.86 409.42 431.2 409.48H431.31L421.15 445.59H418.23C417.39 445.7 416.54 445.75 415.7 445.75Z" fill="#dab1a4" opacity="1" stroke-width="4" stroke="none"></path><path d="M529.86 741.02L530.09 738.66C530.71 737.65 531.38 736.69 532.17 735.79 534.53 732.99 538.4 730.18 542.56 727.2 549.01 722.54 555.75 717.71 557.44 712.26 559.18 706.7 558.78 696.2 556.26 680.31H571.36C577.2 680.31 581.98 684.92 582.26 690.76L583.21 712.1 592.48 687.44C594.05 683.23 598.15 680.37 602.7 680.37L612.75 680.48C612.8 683.51 612.8 686.49 612.75 689.35 612.24 705.86 610.78 722.48 608.42 738.77L607.08 741.13H529.86V741.02Z" fill="#3c2c5b" opacity="1" stroke-width="4" stroke="none"></path><path d="M470.34 691.54L466.35 680.71C466.18 672.9 465.62 664.08 465.06 655.1 464.05 639.82 462.98 622.53 463.6 605.01 463.83 598.89 464.28 592.43 465.01 585.92L466.97 579.63 521.61 581.31 523.52 585.92V585.97C519.31 598.55 517.4 607.87 517.73 614.56 518.07 621.91 518.69 628.37 519.25 635.16 520.37 647.8 521.55 660.88 521.27 680.37L504.26 710.64 487.86 723.66 470.34 691.54Z" fill="#dab1a4" opacity="1" stroke-width="4" stroke="none"></path><path d="M518.41 604.62C509.93 601.86 498.53 598.61 488.42 595.74 471.58 590.91 464.78 588.22 464.78 588.22 464.84 587.43 464.95 586.53 465.01 585.92L466.97 579.63 521.61 581.31 523.52 585.92V585.97C521.38 592.04 519.7 598.27 518.52 604.56V604.67L518.41 604.62Z" fill="#404040" opacity="0.2" stroke-width="4" stroke="none"></path><path d="M435.52 741.02L435.13 738.66V738.6C435.75 737.59 436.42 736.69 437.15 735.79 439.57 732.93 443.5 730.01 447.6 726.92 453.83 722.26 460.23 717.49 462.37 712.26 465.34 704.96 466.52 694.91 466.24 680.2L477.98 680.31C483.82 680.31 488.59 684.92 488.87 690.76L489.83 712.1 499.09 687.44C500.66 683.23 504.76 680.37 509.31 680.37L521.33 680.26C521.27 682.73 521.1 685.31 521.05 687.67 520.49 704.8 518.35 722.04 514.76 738.77V738.83L512.57 741.13H435.52V741.02Z" fill="#3c2c5b" opacity="1" stroke-width="4" stroke="none"></path><path d="M527.06 750V749.89C527.06 749.83 526.38 744.55 530.09 738.54L608.48 738.6C607.47 745.62 606.52 750 606.52 750H527.06Z" fill="#000000" opacity="1" stroke-width="4" stroke="none"></path><path d="M432.16 750V749.89C432.16 749.83 431.43 744.61 435.13 738.6L514.81 738.66C513.3 745.68 512.12 749.94 512.12 749.94L432.16 750Z" fill="#000000" opacity="1" stroke-width="4" stroke="none"></path><path d="M464.95 585.97C472.7 515.72 507.63 448.96 507.96 448.28H579.95C580.01 448.34 585.57 456.42 590.68 469.9 595.34 482.31 600.56 503.54 598.6 533.92 598.04 542.73 597.53 550.15 597.08 556.44 596.13 570.92 595.51 579.68 595.4 585.97H464.95Z" fill="#ffc930" opacity="1" stroke-width="4" stroke="none"></path><path d="M595.45 487.37C552.33 478.27 521.78 450.36 521.5 450.08L521.27 449.91H579.79L579.84 449.97C579.95 450.08 590.23 461.81 595.62 487.25L595.68 487.42 595.45 487.37Z" fill="#505050" opacity="0.2" stroke-width="4" stroke="none"></path><path d="M568.16 454.51C580.52 508.42 571.53 534.25 575.18 585.92" stroke="#505050" stroke-width="4" stroke-linecap="round" stroke-linejoin="round" opacity="1" fill="none"></path><path d="M581.64 469.79C571.81 469.79 560.75 468.16 551.32 465.24H551.26L550.14 450.08H507.46L506.39 441.88C505.04 444.24 495.1 459.68 473.88 460.19 473.43 460.19 472.98 460.19 472.53 460.19 459.9 460.19 445.8 456.2 436.2 452.89 425.81 449.29 418.34 445.59 418.23 445.59L418.17 445.53 426.65 408.3 469.89 417.28C470.34 415.54 476.01 393.53 486.74 376.91 493.76 366.02 505.94 359.28 522.96 356.81 523.29 356.75 523.52 356.69 523.74 356.69L524.47 350.52 563.33 350.63C563.22 354 563.05 356.19 563.05 356.69 563.84 356.81 569.12 357.54 576.02 360.74 582.87 363.94 592.76 370.34 600.96 382.58 616.51 405.88 624.09 434.64 618.98 450.98 613.7 467.37 593.32 469.79 581.64 469.79Z" fill="#ffa0dc" opacity="1" stroke-width="4" stroke="none"></path><path d="M566.14 431.27L566.25 431.1C567.77 428.8 567.99 424.92 568.16 421.16 568.39 416.39 568.61 411.89 571.47 410.66L571.59 410.6 571.64 410.71 578.44 430.48 566.14 431.27Z" fill="#000000" opacity="0.2" stroke-width="4" stroke="none"></path><path d="M503.81 417.51L506.5 441.66V441.71C503.64 446.48 499.71 450.58 495.1 453.67L494.88 453.84 503.81 417.51Z" fill="#000000" opacity="0.2" stroke-width="4" stroke="none"></path><path d="M469.89 417.45L473.71 425.99" stroke="#000000" stroke-width="4" stroke-linecap="round" stroke-linejoin="round" opacity="1" fill="none"></path><path d="M503.58 413.52L506.39 441.6" stroke="#000000" stroke-width="4" stroke-linecap="round" stroke-linejoin="round" opacity="1" fill="none"></path><path d="M573.22 415.77L578.16 430.31" stroke="#000000" stroke-width="4" stroke-linecap="round" stroke-linejoin="round" opacity="1" fill="none"></path><path d="M392.85 446.2C391.72 446.2 390.94 446.04 390.38 445.7 387.79 444.01 387.96 440.98 388.02 440.36 387.51 440.25 385.32 439.75 384.2 437.89 383.41 436.6 383.36 434.86 384.03 432.9 383.47 432.45 379.54 429.36 381.62 425.26 381.11 424.87 378.3 422.51 379.93 418.24 380.49 416.72 382.63 414.59 385.77 412.96 389.2 411.22 393.18 410.43 396.44 410.43 397.23 410.43 397.96 410.49 398.63 410.6 400.99 410.94 401.72 412.12 402.28 413.41 403.01 415.21 402.51 416.95 402.11 417.51 402.67 417.73 403.97 418.74 404.47 420.77 404.98 422.9 403.4 424.75 402.84 425.26 403.57 425.82 405.76 426.89 405.15 428.96 405.09 431.27 402.06 434.41 398.29 436.15 398.91 436.04 399.75 435.87 400.76 435.87 404.3 435.87 405.09 436.71 405.09 438.9 405.09 441.26 403.07 443.34 401.21 444.18 398.57 445.36 395.26 446.2 392.85 446.2Z" fill="#dab1a4" opacity="1" stroke-width="4" stroke="none"></path><path d="M541.94 467.32C533.12 467.32 524.36 465.58 524.25 465.58 524.19 465.58 514.53 466.98 507.12 466.98 501.56 466.98 498.64 466.19 498.42 464.62 497.91 460.86 509.26 458.73 513.69 458 513.75 458 513.75 457.94 513.69 457.94 508.81 457.83 503.92 457.43 499.09 456.82 495.27 456.37 492.86 455.3 492.02 453.62 491.4 452.38 491.79 451.26 491.96 450.92 489.94 449.8 488.87 448.45 488.7 447.05 488.53 445.02 490.22 443.45 490.56 443.17 490.44 442.61 489.94 439.02 495.72 436.94 501.28 434.92 514.2 433.79 516.67 433.57 515.54 433.01 512.23 431.15 511.61 428.96 511.39 428.23 511.5 427.5 511.95 426.89 512.46 426.16 513.97 425.82 516.56 425.82 527.22 425.82 552.78 431.83 553.06 431.88H553.17L553.73 465.97H553.67C550.59 467.04 546.65 467.32 541.94 467.32Z" fill="#dab1a4" opacity="1" stroke-width="4" stroke="none"></path><path d="M553 432.05L585.01 429.81" stroke="#000000" stroke-width="4" stroke-linecap="round" stroke-linejoin="round" opacity="1" fill="none"></path><path d="M557.44 712.54L569.23 717.04" stroke="#000000" stroke-width="4" stroke-linecap="round" stroke-linejoin="round" opacity="1" fill="none"></path><path d="M551.88 720.35L562.27 727.93" stroke="#000000" stroke-width="4" stroke-linecap="round" stroke-linejoin="round" opacity="1" fill="none"></path><path d="M462.37 712.6L474.16 717.09" stroke="#000000" stroke-width="4" stroke-linecap="round" stroke-linejoin="round" opacity="1" fill="none"></path><path d="M457.2 719.9L467.59 727.48" stroke="#000000" stroke-width="4" stroke-linecap="round" stroke-linejoin="round" opacity="1" fill="none"></path><path d="M546.26 324.24L541.38 327.55" stroke="#404040" stroke-width="4" stroke-linecap="round" stroke-linejoin="round" opacity="1" fill="none"></path><path d="M515.94 320.64L515.77 320.47C515.15 319.97 514.93 319.07 515.26 318.34L515.6 316.99" stroke="#404040" stroke-width="4" stroke-linecap="round" stroke-linejoin="round" opacity="1" fill="none"></path><path d="M519.59 325.36C517.96 327.38 515.15 327.32 514.31 326.65" stroke="#404040" stroke-width="4" stroke-linecap="round" stroke-linejoin="round" opacity="1" fill="none"></path><path d="M523.74 316.04C524.59 316.04 525.26 315.36 525.26 314.52 525.26 313.68 524.59 313.01 523.74 313.01 522.91 313.01 522.23 313.68 522.23 314.52 522.23 315.36 522.91 316.04 523.74 316.04Z" fill="#010005" opacity="1" stroke-width="4" stroke="none"></path><path d="M510.32 314.02C511.16 314.02 511.84 313.34 511.84 312.5 511.84 311.66 511.16 310.98 510.32 310.98 509.49 310.98 508.81 311.66 508.81 312.5 508.81 313.34 509.49 314.02 510.32 314.02Z" fill="#010005" opacity="1" stroke-width="4" stroke="none"></path><path d="M524.19 345.97C529.81 344.85 533.4 343.16 533.4 343.16" stroke="#404040" stroke-width="4" stroke-linecap="round" stroke-linejoin="round" opacity="1" fill="none"></path><path d="M490.67 443.28C498.64 441.6 516.22 440.2 521.72 440.2" stroke="#404040" stroke-width="4" stroke-linecap="round" stroke-linejoin="round" opacity="1" fill="none"></path><path d="M492.07 450.98L521.22 448.28" stroke="#404040" stroke-width="4" stroke-linecap="round" stroke-linejoin="round" opacity="1" fill="none"></path><path d="M516.84 433.46L526.61 433.18" stroke="#404040" stroke-width="4" stroke-linecap="round" stroke-linejoin="round" opacity="1" fill="none"></path><path d="M381.62 425.26C387.57 421.5 394.98 418.69 401.89 417.57" stroke="#404040" stroke-width="4" stroke-linecap="round" stroke-linejoin="round" opacity="1" fill="none"></path><path d="M384.59 432.73C389.59 429.02 395.94 426.72 402.51 425.31" stroke="#404040" stroke-width="4" stroke-linecap="round" stroke-linejoin="round" opacity="1" fill="none"></path><path d="M388.47 439.91C393.52 436.71 400.43 435.53 400.43 435.53" stroke="#404040" stroke-width="4" stroke-linecap="round" stroke-linejoin="round" opacity="1" fill="none"></path><path d="M564.85 295.82C563.89 292.12 561.54 289.03 558.05 285.49 555.58 283.02 551.93 280.88 547.44 279.59" stroke="#78123c" stroke-width="4" stroke-linecap="round" stroke-linejoin="round" opacity="1" fill="none"></path><path d="M387.91 411.95C387.91 411.95 397.17 410.1 397.84 410.21 400.2 410.55 401.66 411.44 402.22 412.74 402.95 414.53 401.72 416.95 401.33 417.51 401.89 417.73 403.8 418.18 404.3 420.2 404.81 422.34 402.67 424.7 402.11 425.2 402.73 425.6 404.92 426.77 404.86 428.96 405.31 431.66 400.26 435.42 398.24 436.04 398.8 435.98 399.42 435.48 400.03 435.48 403.57 435.48 405.43 436.6 405.43 438.79 405.43 441.15 402.67 443.45 400.82 444.29" stroke="#3e3e3e" stroke-width="4" stroke-linecap="round" stroke-linejoin="round" opacity="1" fill="none"></path><path d="M513.69 458L522.28 457.94" stroke="#404040" stroke-width="4" stroke-linecap="round" stroke-linejoin="round" opacity="1" fill="none"></path></g></svg>